<?xml version="1.0" standalone="no"?>
<!DOCTYPE svg PUBLIC "-//W3C//DTD SVG 20010904//EN"
 "http://www.w3.org/TR/2001/REC-SVG-20010904/DTD/svg10.dtd">
<svg version="1.0" xmlns="http://www.w3.org/2000/svg"
 width="280.000000pt" height="280.000000pt" viewBox="0 0 280.000000 280.000000"
 preserveAspectRatio="xMidYMid meet">

<g transform="translate(0.000000,280.000000) scale(0.100000,-0.100000)"
fill="#000000" stroke="none">
<path d="M871 2669 c-42 -8 -95 -44 -86 -58 2 -4 -8 -8 -23 -9 -14 -1 -29 -7
-33 -13 -3 -6 -10 -11 -15 -12 -5 -1 -8 -5 -7 -9 2 -5 -4 -8 -13 -8 -10 0 -14
-6 -11 -14 3 -8 -5 -27 -18 -42 -13 -15 -23 -30 -22 -33 1 -3 -11 -23 -28 -45
-30 -39 -33 -47 -37 -103 -1 -18 -6 -33 -10 -33 -4 0 -8 -12 -8 -26 0 -15 -4
-23 -11 -18 -7 4 -10 -7 -8 -33 2 -21 0 -44 -5 -51 -4 -7 -5 -21 -1 -31 3 -11
1 -22 -5 -26 -5 -3 -10 -32 -10 -63 0 -41 3 -53 10 -42 5 8 10 25 10 38 0 12
4 22 9 22 13 0 23 -33 12 -40 -6 -3 -2 -17 9 -35 11 -17 20 -25 21 -20 0 6 5
-1 10 -15 13 -31 24 -15 33 45 3 22 11 58 17 80 6 22 13 50 16 63 3 12 9 22
14 22 5 0 9 8 9 17 0 9 3 13 7 10 3 -4 11 3 17 16 6 12 21 26 34 32 12 5 20
15 18 21 -3 7 5 22 16 34 12 12 20 35 20 54 0 18 3 38 7 44 14 23 153 50 231
46 41 -2 101 -4 132 -6 32 -1 56 -4 53 -6 -3 -3 12 -14 33 -24 20 -10 49 -25
63 -33 27 -15 53 -62 48 -86 -2 -8 3 -24 9 -37 9 -16 11 -47 7 -105 -4 -45 -9
-84 -11 -86 -2 -3 -19 2 -37 10 -42 20 -115 23 -163 7 -56 -19 -91 -12 -98 18
-5 20 -24 34 -81 60 -75 34 -95 40 -95 27 0 -5 -21 -8 -46 -9 -28 -1 -52 -7
-62 -17 -15 -16 -14 -17 10 -17 15 0 30 5 34 11 7 13 66 4 104 -16 29 -15 84
-64 78 -70 -2 -2 -22 2 -43 10 -22 8 -53 14 -70 13 l-30 0 30 -8 c24 -6 17 -8
-35 -10 -36 -1 -76 -5 -89 -9 -21 -6 -22 -8 -8 -20 18 -14 149 -34 172 -25 8
4 15 1 15 -5 0 -6 12 -11 26 -11 15 0 23 -4 19 -11 -4 -6 -14 -8 -23 -4 -9 3
-44 8 -77 9 -33 2 -69 7 -80 11 -14 5 -17 5 -10 -2 6 -6 34 -18 63 -28 66 -21
123 -13 149 21 10 13 32 27 49 30 27 5 38 1 65 -25 21 -21 38 -29 51 -25 13 4
16 1 12 -9 -4 -10 6 -16 34 -21 22 -3 45 -12 51 -20 10 -12 6 -13 -31 -1 -24
7 -51 16 -60 20 -30 12 -20 -1 22 -30 27 -19 58 -30 97 -34 l58 -6 -2 -40 c-4
-52 -21 -93 -43 -100 -23 -7 -56 12 -109 63 -24 24 -46 40 -49 37 -3 -3 0 -11
6 -17 7 -7 12 -20 12 -30 0 -16 -7 -17 -62 -12 -94 10 -163 29 -166 47 -2 9 6
25 17 36 29 29 11 26 -46 -7 -62 -37 -79 -43 -132 -48 -23 -2 -53 -10 -65 -16
-11 -6 -23 -11 -26 -10 -3 1 -3 -11 -2 -26 2 -19 -4 -35 -18 -47 -22 -20 -22
-20 -50 15 -25 30 -28 32 -33 15 -3 -11 -5 -4 -4 15 0 20 -3 41 -7 48 -4 7 -2
12 3 12 6 0 11 5 11 10 0 6 -6 10 -14 10 -10 0 -13 -16 -10 -72 2 -61 1 -65
-5 -28 l-8 45 -3 -40 -3 -40 -7 35 -7 35 -3 -40 -3 -40 -7 40 -7 40 -3 -40 -3
-40 -7 35 -7 35 -3 -40 -3 -40 -7 40 -7 40 -3 -40 -3 -40 -7 40 -7 40 -3 -45
-3 -45 -7 40 -7 40 -3 -40 -3 -40 -7 35 -7 35 -3 -40 -3 -40 -7 40 -7 40 -3
-40 -3 -40 -7 40 -7 40 -3 -40 -3 -40 -7 35 -7 35 -3 -40 -3 -40 -7 40 -7 40
-3 -40 -3 -40 -7 40 -7 40 -3 -45 -3 -45 -7 40 -7 40 -3 -40 -3 -40 -7 40 -7
40 -3 -45 -3 -45 -7 40 -7 40 -3 -40 c-2 -39 -3 -39 -11 15 -14 82 -19 84 -14
5 3 -53 2 -60 -4 -30 l-8 40 -3 -40 c-2 -39 -3 -39 -11 15 -14 82 -19 84 -14
5 l4 -70 -14 70 -13 70 4 -75 3 -75 -14 70 -13 70 3 -70 4 -70 -14 70 -14 70
4 -75 4 -75 -13 75 c-12 65 -14 70 -16 35 l-3 -40 -7 35 -7 35 -3 -40 -3 -40
-7 40 -7 40 -3 -40 -3 -40 -7 35 -7 35 -3 -40 -3 -40 -7 35 -7 35 -3 -40 c-2
-35 -4 -30 -16 35 l-13 75 4 -75 c2 -49 1 -63 -4 -40 -4 22 -8 -17 -9 -107
l-1 -143 29 0 c22 0 30 5 30 18 0 9 4 13 8 7 4 -5 27 -17 51 -25 79 -27 111
-125 111 -347 0 -164 -16 -302 -66 -567 -32 -171 -34 -194 -23 -235 17 -65 41
-107 102 -181 l53 -65 701 -3 701 -2 6 52 c7 62 2 156 -14 248 -15 82 7 279
34 305 17 18 22 50 6 40 -6 -3 -7 1 -4 9 4 10 19 16 41 16 50 0 37 24 -15 28
-33 3 -42 0 -42 -13 0 -9 -4 -13 -10 -10 -17 11 -11 50 10 63 11 7 20 19 20
26 0 19 29 48 40 41 5 -3 6 -13 3 -23 -6 -15 -3 -14 16 3 15 13 39 20 79 21
31 1 59 3 61 3 2 1 -18 21 -44 45 l-47 44 -40 -14 c-83 -29 -74 -7 15 38 34
17 79 48 99 69 47 49 98 76 108 59 9 -14 33 18 45 59 4 14 20 45 35 70 15 26
30 58 34 74 7 30 21 35 33 12 8 -13 14 -13 49 4 22 11 52 23 67 26 15 4 27 11
27 16 0 5 14 6 32 2 24 -5 29 -3 23 7 -6 9 0 11 26 6 l34 -7 -34 16 c-19 8
-31 18 -27 22 3 3 -1 17 -9 30 -20 29 -19 29 133 -8 136 -33 158 -45 260 -143
l52 -50 -2 529 c-2 336 -4 464 -8 350 -5 -164 -6 -170 -9 -70 -2 61 -7 160
-11 220 -5 70 -6 13 -3 -155 3 -146 3 -263 0 -260 -3 3 -9 111 -13 240 -3 129
-8 237 -10 239 -2 2 -5 -88 -6 -200 l-1 -204 -8 195 c-14 341 -16 342 -13 10
2 -351 -2 -347 -15 15 l-8 230 -4 -240 -3 -240 -6 180 -6 180 -3 -255 -4 -255
-8 260 c-12 371 -15 396 -19 165 l-4 -205 -6 175 -6 175 -4 -275 -4 -275 -6
200 c-3 110 -7 184 -10 165 -2 -19 -2 -75 -1 -125 2 -50 -1 -86 -5 -82 -5 5
-12 108 -15 230 l-5 222 -4 -315 -5 -315 -5 275 -5 275 -5 -335 -4 -335 -6
247 c-3 136 -9 251 -14 255 -4 4 -7 -14 -6 -42 2 -27 1 -102 -1 -165 -2 -74
-5 -19 -9 155 l-5 270 -5 -350 -5 -350 -5 295 -5 295 -4 -215 c-4 -226 -16
-226 -22 0 -2 68 -6 6 -9 -155 l-5 -270 -5 360 -5 360 -5 -330 -5 -330 -4 240
-4 240 -8 -175 c-13 -267 -15 -273 -20 -40 l-4 215 -5 -290 -5 -290 -5 370 -5
370 -5 -300 -5 -300 -4 300 -4 300 -8 -285 c-14 -476 -15 -485 -19 -185 l-4
290 -6 -230 -6 -230 -4 285 c-2 188 -6 258 -10 205 l-6 -80 -3 115 c-2 75 -6
106 -11 90 -6 -20 -8 -14 -9 27 -1 37 -5 52 -13 50 -8 -1 -12 6 -10 17 3 15
-1 18 -22 14 -21 -4 -26 -1 -26 14 0 11 -4 16 -10 13 -5 -3 -10 -1 -10 5 0 6
-4 8 -10 5 -6 -4 -10 5 -10 20 0 15 -4 24 -10 20 -5 -3 -10 1 -10 10 0 10 -7
15 -17 13 -10 -2 -31 9 -46 24 -16 16 -33 26 -38 22 -5 -3 -9 -1 -9 3 0 5 -11
9 -25 9 -14 0 -25 -4 -25 -10 0 -5 -6 -2 -13 8 -11 15 -28 18 -98 19 -96 0
-159 -8 -168 -21 -3 -5 -14 -8 -23 -6 -10 1 -18 -2 -18 -7 0 -5 -6 -9 -13 -9
-21 0 -107 -46 -100 -54 3 -3 1 -6 -5 -6 -7 0 -15 -1 -19 -2 -5 -2 -11 17 -14
42 l-6 45 -1 -50 c-3 -90 -44 -101 -91 -25 -17 28 -31 60 -31 71 0 12 -27 48
-63 85 -58 60 -67 66 -132 80 -159 36 -217 40 -304 23z m463 -645 c9 -3 16
-17 16 -30 0 -22 -1 -23 -34 -9 -20 9 -48 12 -65 9 -34 -7 -42 8 -13 25 19 12
72 14 96 5z m539 -88 c22 12 32 13 37 4 4 -6 11 -10 16 -8 5 1 18 -3 29 -9 16
-9 25 -8 39 3 10 7 23 11 29 7 5 -3 13 1 18 8 7 11 9 11 9 1 0 -8 5 -10 12 -6
8 5 9 2 3 -12 -14 -33 -11 -69 5 -69 8 0 17 -2 20 -5 3 -3 14 -10 24 -16 30
-16 29 -28 -3 -47 -35 -20 -42 -21 -36 -4 2 6 -10 23 -26 36 -34 27 -151 44
-234 35 -44 -5 -52 -3 -63 16 -20 33 -22 58 -6 64 9 3 12 1 9 -4 -10 -16 21
-12 35 5 11 13 15 13 33 0 17 -12 24 -12 50 1z m-529 -35 c4 -5 -3 -7 -14 -4
-23 6 -26 13 -6 13 8 0 17 -4 20 -9z m376 -20 c0 -6 -4 -13 -10 -16 -5 -3 -10
1 -10 9 0 9 5 16 10 16 6 0 10 -4 10 -9z m570 -57 c0 -28 -3 -34 -12 -26 -7 5
-22 12 -33 14 -17 4 -16 6 8 12 15 5 27 14 27 22 0 8 2 14 5 14 3 0 5 -16 5
-36z m307 -126 c-2 -29 -3 -8 -3 47 0 55 1 79 3 53 2 -26 2 -71 0 -100z m-619
107 c4 -3 0 -10 -7 -15 -9 -5 5 -12 43 -21 48 -10 57 -16 53 -31 -7 -25 10
-23 51 8 l34 27 -3 -52 c-2 -28 -1 -51 4 -51 4 0 7 -10 8 -22 1 -21 2 -21 12
4 6 16 17 27 26 25 8 -1 20 9 27 22 11 21 13 22 17 5 3 -17 5 -16 16 6 11 25
11 24 6 -5 -4 -16 -7 -61 -7 -100 l-1 -70 -7 60 -7 60 -3 -50 c-3 -49 -3 -49
-10 -15 -7 32 -7 33 -9 7 -1 -32 -25 -45 -52 -28 -17 10 -19 8 -19 -29 0 -29
-4 -40 -15 -40 -8 0 -15 3 -15 8 0 4 -39 8 -86 9 -125 3 -182 38 -110 68 20 9
36 17 36 20 0 2 -32 1 -71 -2 -62 -5 -74 -3 -100 16 -16 12 -29 17 -29 12 0
-6 14 -21 30 -33 23 -16 30 -29 28 -47 -3 -24 -6 -25 -68 -22 -72 3 -92 15
-92 56 0 15 6 31 13 36 8 5 10 9 5 9 -5 0 1 12 15 26 l24 26 -22 18 c-13 10
-23 22 -23 27 0 12 51 38 65 34 6 -2 28 -3 50 -4 25 0 31 -1 15 -4 -14 -3 -30
-9 -36 -14 -12 -10 -7 -52 5 -44 4 2 7 -6 7 -18 -1 -19 5 -22 54 -23 72 -3
114 11 130 41 7 14 19 25 26 25 24 0 25 20 2 29 -13 6 -16 10 -8 10 32 2 -45
31 -81 31 -40 0 -53 14 -21 24 21 6 91 0 100 -9z m-405 -22 c-7 -2 -19 -2 -25
0 -7 3 -2 5 12 5 14 0 19 -2 13 -5z m345 -20 c-10 -2 -28 -2 -40 0 -13 2 -5 4
17 4 22 1 32 -1 23 -4z m-926 -32 c40 -27 79 -40 135 -44 12 0 20 -4 17 -8 -2
-4 -25 -5 -51 -3 -66 5 -180 21 -168 23 6 1 4 5 -2 9 -10 6 -9 13 5 30 9 12
18 22 19 22 1 0 21 -13 45 -29z m1295 -23 c-2 -13 -4 -5 -4 17 -1 22 1 32 4
23 2 -10 2 -28 0 -40z m-327 1 c0 -5 -11 -9 -25 -9 -26 0 -34 15 -12 23 16 5
37 -3 37 -14z m-583 -81 c-2 -18 -4 -6 -4 27 0 33 2 48 4 33 2 -15 2 -42 0
-60z m236 75 c-7 -2 -19 -2 -25 0 -7 3 -2 5 12 5 14 0 19 -2 13 -5z m-984 -73
c1 -14 8 -38 16 -54 8 -15 15 -35 15 -42 0 -8 5 -14 10 -14 6 0 10 -8 10 -19
0 -23 44 -102 70 -126 11 -10 20 -25 20 -34 0 -9 7 -27 16 -39 8 -12 11 -22 6
-22 -15 0 -23 -43 -9 -52 6 -4 14 -4 17 0 3 4 14 12 25 18 30 18 98 -22 92
-53 -2 -13 -4 -23 -3 -23 0 0 32 11 70 25 72 25 90 41 95 87 1 7 8 5 19 -5 10
-9 32 -20 50 -23 31 -6 54 -34 28 -34 -12 0 -12 -6 -3 -29 14 -39 -15 -179
-49 -238 -27 -47 -123 -132 -184 -163 -60 -31 -108 -26 -195 19 -91 47 -226
143 -266 189 -34 38 -105 176 -161 312 -51 121 -55 138 -34 146 9 3 17 18 17
33 2 22 2 23 6 4 5 -28 33 -19 34 11 0 20 1 20 9 1 8 -18 9 -18 10 5 1 23 2
23 10 5 5 -11 9 -14 9 -7 1 7 6 10 11 7 6 -3 10 -2 10 2 0 5 12 10 27 11 16 1
48 15 73 30 35 22 46 35 51 62 l6 35 3 -30 3 -30 7 35 c6 28 8 30 9 10 l1 -25
15 29 c8 15 15 36 16 45 1 22 17 -28 18 -59z m731 10 c0 -31 -3 -38 -15 -34
-8 4 -15 10 -15 16 0 5 5 6 10 3 6 -4 10 7 10 24 0 17 2 31 5 31 3 0 5 -18 5
-40z m921 17 c-10 -9 -11 -8 -5 6 3 10 9 15 12 12 3 -3 0 -11 -7 -18z m-884
-64 c-2 -16 -4 -3 -4 27 0 30 2 43 4 28 2 -16 2 -40 0 -55z m-880 15 c-2 -13
-4 -5 -4 17 -1 22 1 32 4 23 2 -10 2 -28 0 -40z m20 0 c-2 -13 -4 -5 -4 17 -1
22 1 32 4 23 2 -10 2 -28 0 -40z m1102 37 c13 4 21 2 21 -5 0 -6 -4 -8 -10 -5
-5 3 -15 -6 -22 -20 -12 -27 -13 -27 -86 -20 -51 5 -79 12 -92 25 -17 17 -17
19 -2 20 9 0 49 4 87 8 39 4 73 3 76 -2 4 -4 16 -5 28 -1z m-1182 -47 c-2 -13
-4 -5 -4 17 -1 22 1 32 4 23 2 -10 2 -28 0 -40z m20 -10 c-2 -13 -4 -3 -4 22
0 25 2 35 4 23 2 -13 2 -33 0 -45z m20 10 c-2 -13 -4 -5 -4 17 -1 22 1 32 4
23 2 -10 2 -28 0 -40z m533 40 c0 -4 11 -6 25 -2 15 4 25 2 25 -5 0 -6 7 -11
15 -11 8 0 15 -4 15 -9 0 -12 -50 -20 -84 -14 -20 4 -27 2 -22 -6 4 -6 25 -11
47 -11 27 0 38 -4 33 -11 -4 -7 -25 -9 -56 -7 -95 10 -129 85 -38 85 22 0 40
-4 40 -9z m-903 -45 c-3 -10 -5 -2 -5 17 0 19 2 27 5 18 2 -10 2 -26 0 -35z
m310 0 c-3 -10 -5 -2 -5 17 0 19 2 27 5 18 2 -10 2 -26 0 -35z m476 20 c-10
-4 -9 -9 3 -20 12 -13 13 -18 3 -24 -11 -6 -10 -13 1 -33 13 -26 39 -36 122
-50 46 -8 52 -16 31 -46 -15 -21 -21 -22 -80 -16 -84 9 -143 45 -143 88 0 16
-7 39 -16 53 -28 43 21 86 71 61 13 -6 15 -11 8 -13z m-826 -35 c-2 -13 -4 -5
-4 17 -1 22 1 32 4 23 2 -10 2 -28 0 -40z m20 5 c-3 -10 -5 -2 -5 17 0 19 2
27 5 18 2 -10 2 -26 0 -35z m270 -5 c-2 -13 -4 -5 -4 17 -1 22 1 32 4 23 2
-10 2 -28 0 -40z m20 0 c-2 -13 -4 -5 -4 17 -1 22 1 32 4 23 2 -10 2 -28 0
-40z m20 5 c-3 -10 -5 -2 -5 17 0 19 2 27 5 18 2 -10 2 -26 0 -35z m-350 -10
c-3 -10 -5 -2 -5 17 0 19 2 27 5 18 2 -10 2 -26 0 -35z m270 -5 c-2 -13 -4 -5
-4 17 -1 22 1 32 4 23 2 -10 2 -28 0 -40z m20 5 c-3 -10 -5 -2 -5 17 0 19 2
27 5 18 2 -10 2 -26 0 -35z m1920 25 c-3 -8 -6 -5 -6 6 -1 11 2 17 5 13 3 -3
4 -12 1 -19z m-2230 -35 c-3 -10 -5 -2 -5 17 0 19 2 27 5 18 2 -10 2 -26 0
-35z m270 0 c-3 -10 -5 -2 -5 17 0 19 2 27 5 18 2 -10 2 -26 0 -35z m-290 0
c-3 -10 -5 -4 -5 12 0 17 2 24 5 18 2 -7 2 -21 0 -30z m250 -10 c-3 -10 -5 -2
-5 17 0 19 2 27 5 18 2 -10 2 -26 0 -35z m20 0 c-3 -10 -5 -2 -5 17 0 19 2 27
5 18 2 -10 2 -26 0 -35z m1043 2 l3 40 7 -40 c7 -37 7 -38 10 -10 2 21 4 24 7
11 4 -15 7 -16 14 -5 7 11 9 11 9 1 0 -7 4 -11 9 -8 11 7 24 -41 15 -56 -4 -7
-3 -8 4 -4 9 5 12 -9 10 -51 l-1 -58 -7 45 c-7 44 -7 44 -10 10 l-3 -35 -6 35
c-6 31 -8 27 -18 -40 l-10 -75 -3 55 -3 55 -7 -45 -7 -45 -3 50 -3 50 -7 -50
-7 -50 -3 50 c-3 49 -3 49 -10 15 l-7 -35 -3 40 -3 40 -7 -45 -7 -45 -2 45
c-3 38 -4 41 -11 20 l-8 -25 -2 25 c-1 23 -2 23 -10 5 -7 -16 -9 -12 -11 20
l-2 40 -7 -40 -7 -40 -2 46 c-1 39 3 50 28 72 20 17 31 22 35 14 2 -7 5 -1 6
13 l2 25 8 -25 c7 -22 8 -21 11 15 l2 40 7 -45 7 -45 3 40z m967 -32 c-2 -16
-4 -3 -4 27 0 30 2 43 4 28 2 -16 2 -40 0 -55z m120 15 c-2 -13 -4 -3 -4 22 0
25 2 35 4 23 2 -13 2 -33 0 -45z m-2190 5 c-3 -10 -5 -2 -5 17 0 19 2 27 5 18
2 -10 2 -26 0 -35z m20 10 c-3 -10 -5 -4 -5 12 0 17 2 24 5 18 2 -7 2 -21 0
-30z m-60 -10 c-3 -10 -5 -4 -5 12 0 17 2 24 5 18 2 -7 2 -21 0 -30z m20 0
c-3 -10 -5 -4 -5 12 0 17 2 24 5 18 2 -7 2 -21 0 -30z m1369 16 c16 -13 19
-33 4 -24 -5 3 -25 -1 -44 -9 -33 -14 -36 -13 -62 9 -38 33 -24 49 38 42 28
-4 56 -12 64 -18z m60 -6 c-10 -10 -19 5 -10 18 6 11 8 11 12 0 2 -7 1 -15 -2
-18z m-1469 -30 c-3 -10 -5 -2 -5 17 0 19 2 27 5 18 2 -10 2 -26 0 -35z m-40
-10 c-3 -10 -5 -2 -5 17 0 19 2 27 5 18 2 -10 2 -26 0 -35z m20 15 c-3 -7 -5
-2 -5 12 0 14 2 19 5 13 2 -7 2 -19 0 -25z m-40 -25 c-3 -10 -5 -2 -5 17 0 19
2 27 5 18 2 -10 2 -26 0 -35z m-20 0 c-3 -10 -5 -4 -5 12 0 17 2 24 5 18 2 -7
2 -21 0 -30z m-20 -10 c-3 -10 -5 -4 -5 12 0 17 2 24 5 18 2 -7 2 -21 0 -30z
m1780 -37 c-5 -11 -20 -16 -54 -16 -26 0 -57 -3 -68 -6 -11 -3 -29 2 -40 11
-19 15 -18 15 15 10 29 -5 39 -2 59 19 14 14 30 26 37 26 6 0 18 7 25 16 12
15 15 14 23 -14 5 -17 6 -38 3 -46z m-1820 32 c-3 -7 -5 -2 -5 12 0 14 2 19 5
13 2 -7 2 -19 0 -25z m20 0 c-3 -7 -5 -2 -5 12 0 14 2 19 5 13 2 -7 2 -19 0
-25z m-40 0 c-3 -8 -6 -5 -6 6 -1 11 2 17 5 13 3 -3 4 -12 1 -19z m250 -10
c-3 -8 -6 -5 -6 6 -1 11 2 17 5 13 3 -3 4 -12 1 -19z m20 0 c-3 -8 -6 -5 -6 6
-1 11 2 17 5 13 3 -3 4 -12 1 -19z m933 -24 c0 -27 -4 -35 -14 -31 -8 3 -17 1
-20 -6 -2 -7 -3 -1 -1 13 2 14 4 30 5 35 1 6 5 1 10 -10 8 -18 9 -17 9 8 1 40
11 33 11 -9z m-1073 -6 c-3 -8 -6 -5 -6 6 -1 11 2 17 5 13 3 -3 4 -12 1 -19z
m-40 -20 c-3 -7 -5 -2 -5 12 0 14 2 19 5 13 2 -7 2 -19 0 -25z m20 10 c-3 -8
-6 -5 -6 6 -1 11 2 17 5 13 3 -3 4 -12 1 -19z m-40 -10 c-3 -8 -6 -5 -6 6 -1
11 2 17 5 13 3 -3 4 -12 1 -19z m1360 -40 c-2 -13 -4 -5 -4 17 -1 22 1 32 4
23 2 -10 2 -28 0 -40z m-280 -5 c-3 -10 -5 -2 -5 17 0 19 2 27 5 18 2 -10 2
-26 0 -35z m-20 0 c-3 -10 -5 -4 -5 12 0 17 2 24 5 18 2 -7 2 -21 0 -30z m40
-15 c-3 -7 -5 -2 -5 12 0 14 2 19 5 13 2 -7 2 -19 0 -25z m280 -5 c-3 -10 -5
-4 -5 12 0 17 2 24 5 18 2 -7 2 -21 0 -30z m300 25 c-2 -8 -20 -13 -42 -13
-22 0 -40 5 -43 13 -2 8 10 12 43 12 33 0 45 -4 42 -12z m33 4 c0 -5 13 -7 29
-4 21 3 35 -3 54 -22 14 -14 33 -26 42 -26 8 0 15 -5 15 -11 0 -23 -57 -83
-95 -100 -72 -33 -175 -17 -187 28 -5 17 2 19 66 19 74 -1 131 18 105 34 -11
7 -9 13 6 32 l20 23 -22 -19 c-28 -24 -109 -32 -142 -14 -36 20 -31 33 11 30
47 -4 78 5 78 24 0 8 5 14 10 14 6 0 10 -4 10 -8z m-573 -54 c-3 -7 -5 -2 -5
12 0 14 2 19 5 13 2 -7 2 -19 0 -25z m260 0 c-3 -7 -5 -2 -5 12 0 14 2 19 5
13 2 -7 2 -19 0 -25z m20 -10 c-3 -8 -6 -5 -6 6 -1 11 2 17 5 13 3 -3 4 -12 1
-19z m-23 -20 c-11 -26 -95 -79 -115 -73 -19 6 -19 7 0 34 14 20 29 27 58 29
21 2 42 7 47 12 13 13 16 12 10 -2z m-116 -520 c25 -55 35 -108 21 -108 -6 0
-8 4 -5 8 3 5 -1 9 -8 9 -15 0 -9 -27 8 -39 6 -4 8 -10 4 -13 -9 -9 -33 7 -33
23 0 6 -4 12 -10 12 -5 0 -10 -10 -10 -23 0 -18 7 -23 35 -27 34 -5 35 -6 32
-45 -4 -38 -17 -65 -31 -65 -4 0 -13 16 -19 35 -12 31 -15 33 -38 25 -35 -14
-34 -15 -34 30 0 37 7 45 33 41 4 0 7 3 7 9 0 6 -4 10 -10 10 -5 0 -17 14 -26
31 -14 29 -14 33 0 48 13 13 20 13 36 3 17 -10 20 -10 21 5 2 26 2 26 -6 51
-12 39 14 24 33 -20z m16 -300 c9 -12 16 -29 16 -37 0 -10 -5 -8 -16 8 -11 15
-23 21 -35 18 -11 -3 -19 0 -19 7 0 32 33 35 54 4z m2 -153 c4 -8 2 -21 -4
-28 -5 -6 -8 -20 -7 -29 4 -25 -12 -22 -20 3 -14 42 16 94 31 54z m-31 -125
c-9 -26 -10 -38 -3 -34 6 4 9 1 7 -5 -7 -21 -24 -17 -27 7 -3 20 21 72 33 72
2 0 -2 -18 -10 -40z"/>
<path d="M2010 1745 c7 -8 16 -12 21 -9 13 8 1 24 -18 24 -13 0 -13 -3 -3 -15z"/>
<path d="M1730 1670 c0 -5 5 -10 11 -10 5 0 7 5 4 10 -3 6 -8 10 -11 10 -2 0
-4 -4 -4 -10z"/>
<path d="M2214 1666 c-10 -8 -16 -17 -13 -20 3 -3 14 1 25 8 10 8 16 17 13 20
-3 3 -14 -1 -25 -8z"/>
<path d="M1014 1183 c-7 -24 -5 -34 3 -30 8 2 14 47 6 47 -3 0 -7 -8 -9 -17z"/>
<path d="M911 870 c0 -8 4 -22 9 -30 12 -18 12 -2 0 25 -6 13 -9 15 -9 5z"/>
<path d="M1357 609 c7 -7 15 -10 18 -7 3 3 -2 9 -12 12 -14 6 -15 5 -6 -5z"/>
<path d="M181 2424 c0 -11 3 -14 6 -6 3 7 2 16 -1 19 -3 4 -6 -2 -5 -13z"/>
<path d="M31 2414 c0 -11 3 -14 6 -6 3 7 2 16 -1 19 -3 4 -6 -2 -5 -13z"/>
<path d="M12 2400 c0 -14 2 -19 5 -12 2 6 2 18 0 25 -3 6 -5 1 -5 -13z"/>
<path d="M101 2374 c0 -11 3 -14 6 -6 3 7 2 16 -1 19 -3 4 -6 -2 -5 -13z"/>
<path d="M81 2364 c0 -11 3 -14 6 -6 3 7 2 16 -1 19 -3 4 -6 -2 -5 -13z"/>
<path d="M211 2354 c0 -11 3 -14 6 -6 3 7 2 16 -1 19 -3 4 -6 -2 -5 -13z"/>
<path d="M61 2344 c0 -11 3 -14 6 -6 3 7 2 16 -1 19 -3 4 -6 -2 -5 -13z"/>
<path d="M191 2344 c0 -11 3 -14 6 -6 3 7 2 16 -1 19 -3 4 -6 -2 -5 -13z"/>
<path d="M42 2330 c0 -14 2 -19 5 -12 2 6 2 18 0 25 -3 6 -5 1 -5 -13z"/>
<path d="M22 2320 c0 -14 2 -19 5 -12 2 6 2 18 0 25 -3 6 -5 1 -5 -13z"/>
<path d="M171 2324 c0 -11 3 -14 6 -6 3 7 2 16 -1 19 -3 4 -6 -2 -5 -13z"/>
<path d="M2 2305 c0 -16 2 -22 5 -12 2 9 2 23 0 30 -3 6 -5 -1 -5 -18z"/>
<path d="M151 2314 c0 -11 3 -14 6 -6 3 7 2 16 -1 19 -3 4 -6 -2 -5 -13z"/>
<path d="M302 2310 c0 -14 2 -19 5 -12 2 6 2 18 0 25 -3 6 -5 1 -5 -13z"/>
<path d="M132 2300 c0 -14 2 -19 5 -12 2 6 2 18 0 25 -3 6 -5 1 -5 -13z"/>
<path d="M282 2300 c0 -14 2 -19 5 -12 2 6 2 18 0 25 -3 6 -5 1 -5 -13z"/>
<path d="M112 2285 c0 -16 2 -22 5 -12 2 9 2 23 0 30 -3 6 -5 -1 -5 -18z"/>
<path d="M262 2290 c0 -14 2 -19 5 -12 2 6 2 18 0 25 -3 6 -5 1 -5 -13z"/>
<path d="M451 2294 c0 -11 3 -14 6 -6 3 7 2 16 -1 19 -3 4 -6 -2 -5 -13z"/>
<path d="M92 2280 c0 -14 2 -19 5 -12 2 6 2 18 0 25 -3 6 -5 1 -5 -13z"/>
<path d="M242 2280 c0 -14 2 -19 5 -12 2 6 2 18 0 25 -3 6 -5 1 -5 -13z"/>
<path d="M432 2280 c0 -14 2 -19 5 -12 2 6 2 18 0 25 -3 6 -5 1 -5 -13z"/>
<path d="M72 2265 c0 -16 2 -22 5 -12 2 9 2 23 0 30 -3 6 -5 -1 -5 -18z"/>
<path d="M412 2270 c0 -14 2 -19 5 -12 2 6 2 18 0 25 -3 6 -5 1 -5 -13z"/>
<path d="M52 2255 c0 -16 2 -22 5 -12 2 9 2 23 0 30 -3 6 -5 -1 -5 -18z"/>
<path d="M202 2255 c0 -16 2 -22 5 -12 2 9 2 23 0 30 -3 6 -5 -1 -5 -18z"/>
<path d="M221 2264 c0 -11 3 -14 6 -6 3 7 2 16 -1 19 -3 4 -6 -2 -5 -13z"/>
<path d="M372 2255 c0 -16 2 -22 5 -12 2 9 2 23 0 30 -3 6 -5 -1 -5 -18z"/>
<path d="M392 2260 c0 -14 2 -19 5 -12 2 6 2 18 0 25 -3 6 -5 1 -5 -13z"/>
<path d="M32 2240 c0 -19 2 -27 5 -17 2 9 2 25 0 35 -3 9 -5 1 -5 -18z"/>
<path d="M182 2245 c0 -16 2 -22 5 -12 2 9 2 23 0 30 -3 6 -5 -1 -5 -18z"/>
<path d="M12 2230 c0 -19 2 -27 5 -17 2 9 2 25 0 35 -3 9 -5 1 -5 -18z"/>
<path d="M162 2235 c0 -16 2 -22 5 -12 2 9 2 23 0 30 -3 6 -5 -1 -5 -18z"/>
<path d="M332 2235 c0 -16 2 -22 5 -12 2 9 2 23 0 30 -3 6 -5 -1 -5 -18z"/>
<path d="M352 2240 c0 -14 2 -19 5 -12 2 6 2 18 0 25 -3 6 -5 1 -5 -13z"/>
<path d="M142 2220 c0 -19 2 -27 5 -17 2 9 2 25 0 35 -3 9 -5 1 -5 -18z"/>
<path d="M522 2225 c0 -16 2 -22 5 -12 2 9 2 23 0 30 -3 6 -5 -1 -5 -18z"/>
<path d="M292 2215 c0 -16 2 -22 5 -12 2 9 2 23 0 30 -3 6 -5 -1 -5 -18z"/>
<path d="M312 2220 c0 -14 2 -19 5 -12 2 6 2 18 0 25 -3 6 -5 1 -5 -13z"/>
<path d="M502 2215 c0 -16 2 -22 5 -12 2 9 2 23 0 30 -3 6 -5 -1 -5 -18z"/>
<path d="M122 2205 c0 -16 2 -22 5 -12 2 9 2 23 0 30 -3 6 -5 -1 -5 -18z"/>
<path d="M272 2205 c0 -16 2 -22 5 -12 2 9 2 23 0 30 -3 6 -5 -1 -5 -18z"/>
<path d="M482 2205 c0 -16 2 -22 5 -12 2 9 2 23 0 30 -3 6 -5 -1 -5 -18z"/>
<path d="M102 2195 c0 -16 2 -22 5 -12 2 9 2 23 0 30 -3 6 -5 -1 -5 -18z"/>
<path d="M252 2195 c0 -16 2 -22 5 -12 2 9 2 23 0 30 -3 6 -5 -1 -5 -18z"/>
<path d="M442 2190 c0 -19 2 -27 5 -17 2 9 2 25 0 35 -3 9 -5 1 -5 -18z"/>
<path d="M462 2195 c0 -16 2 -22 5 -12 2 9 2 23 0 30 -3 6 -5 -1 -5 -18z"/>
<path d="M82 2185 c0 -16 2 -22 5 -12 2 9 2 23 0 30 -3 6 -5 -1 -5 -18z"/>
<path d="M232 2180 c0 -19 2 -27 5 -17 2 9 2 25 0 35 -3 9 -5 1 -5 -18z"/>
<path d="M62 2170 c0 -19 2 -27 5 -17 2 9 2 25 0 35 -3 9 -5 1 -5 -18z"/>
<path d="M402 2170 c0 -19 2 -27 5 -17 2 9 2 25 0 35 -3 9 -5 1 -5 -18z"/>
<path d="M422 2175 c0 -16 2 -22 5 -12 2 9 2 23 0 30 -3 6 -5 -1 -5 -18z"/>
<path d="M42 2160 c0 -19 2 -27 5 -17 2 9 2 25 0 35 -3 9 -5 1 -5 -18z"/>
<path d="M212 2165 c0 -16 2 -22 5 -12 2 9 2 23 0 30 -3 6 -5 -1 -5 -18z"/>
<path d="M382 2160 c0 -19 2 -27 5 -17 2 9 2 25 0 35 -3 9 -5 1 -5 -18z"/>
<path d="M23 2145 c0 -22 2 -30 4 -17 2 12 2 30 0 40 -3 9 -5 -1 -4 -23z"/>
<path d="M192 2155 c0 -16 2 -22 5 -12 2 9 2 23 0 30 -3 6 -5 -1 -5 -18z"/>
<path d="M362 2150 c0 -19 2 -27 5 -17 2 9 2 25 0 35 -3 9 -5 1 -5 -18z"/>
<path d="M172 2145 c0 -16 2 -22 5 -12 2 9 2 23 0 30 -3 6 -5 -1 -5 -18z"/>
<path d="M342 2140 c0 -19 2 -27 5 -17 2 9 2 25 0 35 -3 9 -5 1 -5 -18z"/>
<path d="M2 2130 c0 -19 2 -27 5 -17 2 9 2 25 0 35 -3 9 -5 1 -5 -18z"/>
<path d="M152 2130 c0 -19 2 -27 5 -17 2 9 2 25 0 35 -3 9 -5 1 -5 -18z"/>
<path d="M322 2130 c0 -19 2 -27 5 -17 2 9 2 25 0 35 -3 9 -5 1 -5 -18z"/>
<path d="M132 2120 c0 -19 2 -27 5 -17 2 9 2 25 0 35 -3 9 -5 1 -5 -18z"/>
<path d="M302 2120 c0 -19 2 -27 5 -17 2 9 2 25 0 35 -3 9 -5 1 -5 -18z"/>
<path d="M512 2130 c0 -14 2 -19 5 -12 2 6 2 18 0 25 -3 6 -5 1 -5 -13z"/>
<path d="M112 2110 c0 -19 2 -27 5 -17 2 9 2 25 0 35 -3 9 -5 1 -5 -18z"/>
<path d="M282 2110 c0 -19 2 -27 5 -17 2 9 2 25 0 35 -3 9 -5 1 -5 -18z"/>
<path d="M493 2105 c0 -22 2 -30 4 -17 2 12 2 30 0 40 -3 9 -5 -1 -4 -23z"/>
<path d="M92 2100 c0 -19 2 -27 5 -17 2 9 2 25 0 35 -3 9 -5 1 -5 -18z"/>
<path d="M262 2100 c0 -19 2 -27 5 -17 2 9 2 25 0 35 -3 9 -5 1 -5 -18z"/>
<path d="M453 2095 c0 -22 2 -30 4 -17 2 12 2 30 0 40 -3 9 -5 -1 -4 -23z"/>
<path d="M473 2095 c0 -22 2 -30 4 -17 2 12 2 30 0 40 -3 9 -5 -1 -4 -23z"/>
<path d="M72 2090 c0 -19 2 -27 5 -17 2 9 2 25 0 35 -3 9 -5 1 -5 -18z"/>
<path d="M223 2085 c0 -22 2 -30 4 -17 2 12 2 30 0 40 -3 9 -5 -1 -4 -23z"/>
<path d="M242 2090 c0 -19 2 -27 5 -17 2 9 2 25 0 35 -3 9 -5 1 -5 -18z"/>
<path d="M433 2085 c0 -22 2 -30 4 -17 2 12 2 30 0 40 -3 9 -5 -1 -4 -23z"/>
<path d="M52 2085 c0 -16 3 -50 7 -75 6 -33 9 -37 9 -15 0 17 -3 50 -7 75 -6
33 -9 37 -9 15z"/>
<path d="M203 2075 c0 -22 2 -30 4 -17 2 12 2 30 0 40 -3 9 -5 -1 -4 -23z"/>
<path d="M413 2075 c0 -22 2 -30 4 -17 2 12 2 30 0 40 -3 9 -5 -1 -4 -23z"/>
<path d="M33 2065 c0 -22 2 -30 4 -17 2 12 2 30 0 40 -3 9 -5 -1 -4 -23z"/>
<path d="M393 2065 c0 -22 2 -30 4 -17 2 12 2 30 0 40 -3 9 -5 -1 -4 -23z"/>
<path d="M12 2065 c0 -16 3 -50 7 -75 6 -33 9 -37 9 -15 0 17 -3 50 -7 75 -6
33 -9 37 -9 15z"/>
<path d="M182 2060 c0 -19 2 -27 5 -17 2 9 2 25 0 35 -3 9 -5 1 -5 -18z"/>
<path d="M353 2055 c0 -22 2 -30 4 -17 2 12 2 30 0 40 -3 9 -5 -1 -4 -23z"/>
<path d="M373 2055 c0 -22 2 -30 4 -17 2 12 2 30 0 40 -3 9 -5 -1 -4 -23z"/>
<path d="M143 2045 c0 -22 2 -30 4 -17 2 12 2 30 0 40 -3 9 -5 -1 -4 -23z"/>
<path d="M162 2050 c0 -19 2 -27 5 -17 2 9 2 25 0 35 -3 9 -5 1 -5 -18z"/>
<path d="M123 2035 c0 -22 2 -30 4 -17 2 12 2 30 0 40 -3 9 -5 -1 -4 -23z"/>
<path d="M313 2035 c0 -22 2 -30 4 -17 2 12 2 30 0 40 -3 9 -5 -1 -4 -23z"/>
<path d="M332 2040 c0 -19 2 -27 5 -17 2 9 2 25 0 35 -3 9 -5 1 -5 -18z"/>
<path d="M103 2025 c0 -22 2 -30 4 -17 2 12 2 30 0 40 -3 9 -5 -1 -4 -23z"/>
<path d="M293 2025 c0 -22 2 -30 4 -17 2 12 2 30 0 40 -3 9 -5 -1 -4 -23z"/>
<path d="M272 2020 c0 -19 2 -27 5 -17 2 9 2 25 0 35 -3 9 -5 1 -5 -18z"/>
<path d="M82 2010 c0 -19 2 -27 5 -17 2 9 2 25 0 35 -3 9 -5 1 -5 -18z"/>
<path d="M252 2010 c0 -19 2 -27 5 -17 2 9 2 25 0 35 -3 9 -5 1 -5 -18z"/>
<path d="M463 2005 c0 -22 2 -30 4 -17 2 12 2 30 0 40 -3 9 -5 -1 -4 -23z"/>
<path d="M483 2005 c0 -22 2 -30 4 -17 2 12 2 30 0 40 -3 9 -5 -1 -4 -23z"/>
<path d="M502 2010 c0 -19 2 -27 5 -17 2 9 2 25 0 35 -3 9 -5 1 -5 -18z"/>
<path d="M232 2000 c0 -19 2 -27 5 -17 2 9 2 25 0 35 -3 9 -5 1 -5 -18z"/>
<path d="M42 1990 c0 -19 2 -27 5 -17 2 9 2 25 0 35 -3 9 -5 1 -5 -18z"/>
<path d="M212 1990 c0 -19 2 -27 5 -17 2 9 2 25 0 35 -3 9 -5 1 -5 -18z"/>
<path d="M422 1990 c0 -19 2 -27 5 -17 2 9 2 25 0 35 -3 9 -5 1 -5 -18z"/>
<path d="M442 1990 c0 -19 2 -27 5 -17 2 9 2 25 0 35 -3 9 -5 1 -5 -18z"/>
<path d="M192 1985 c0 -16 2 -22 5 -12 2 9 2 23 0 30 -3 6 -5 -1 -5 -18z"/>
<path d="M402 1980 c0 -19 2 -27 5 -17 2 9 2 25 0 35 -3 9 -5 1 -5 -18z"/>
<path d="M2 1970 c0 -19 2 -27 5 -17 2 9 2 25 0 35 -3 9 -5 1 -5 -18z"/>
<path d="M172 1975 c0 -16 2 -22 5 -12 2 9 2 23 0 30 -3 6 -5 -1 -5 -18z"/>
<path d="M382 1970 c0 -19 2 -27 5 -17 2 9 2 25 0 35 -3 9 -5 1 -5 -18z"/>
<path d="M152 1965 c0 -16 2 -22 5 -12 2 9 2 23 0 30 -3 6 -5 -1 -5 -18z"/>
<path d="M132 1955 c0 -16 2 -22 5 -12 2 9 2 23 0 30 -3 6 -5 -1 -5 -18z"/>
<path d="M342 1960 c0 -14 2 -19 5 -12 2 6 2 18 0 25 -3 6 -5 1 -5 -13z"/>
<path d="M362 1960 c0 -14 2 -19 5 -12 2 6 2 18 0 25 -3 6 -5 1 -5 -13z"/>
<path d="M112 1945 c0 -16 2 -22 5 -12 2 9 2 23 0 30 -3 6 -5 -1 -5 -18z"/>
<path d="M321 1954 c0 -11 3 -14 6 -6 3 7 2 16 -1 19 -3 4 -6 -2 -5 -13z"/>
<path d="M92 1935 c0 -16 2 -22 5 -12 2 9 2 23 0 30 -3 6 -5 -1 -5 -18z"/>
<path d="M301 1944 c0 -11 3 -14 6 -6 3 7 2 16 -1 19 -3 4 -6 -2 -5 -13z"/>
<path d="M72 1925 c0 -16 2 -22 5 -12 2 9 2 23 0 30 -3 6 -5 -1 -5 -18z"/>
<path d="M52 1915 c0 -16 2 -22 5 -12 2 9 2 23 0 30 -3 6 -5 -1 -5 -18z"/>
<path d="M32 1900 c0 -19 2 -27 5 -17 2 9 2 25 0 35 -3 9 -5 1 -5 -18z"/>
<path d="M492 1910 c0 -14 2 -19 5 -12 2 6 2 18 0 25 -3 6 -5 1 -5 -13z"/>
<path d="M511 1914 c0 -11 3 -14 6 -6 3 7 2 16 -1 19 -3 4 -6 -2 -5 -13z"/>
<path d="M532 1910 c0 -14 2 -19 5 -12 2 6 2 18 0 25 -3 6 -5 1 -5 -13z"/>
<path d="M12 1890 c0 -19 2 -27 5 -17 2 9 2 25 0 35 -3 9 -5 1 -5 -18z"/>
<path d="M202 1890 c0 -14 2 -19 5 -12 2 6 2 18 0 25 -3 6 -5 1 -5 -13z"/>
<path d="M451 1894 c0 -11 3 -14 6 -6 3 7 2 16 -1 19 -3 4 -6 -2 -5 -13z"/>
<path d="M412 1880 c0 -14 2 -19 5 -12 2 6 2 18 0 25 -3 6 -5 1 -5 -13z"/>
<path d="M142 1870 c0 -14 2 -19 5 -12 2 6 2 18 0 25 -3 6 -5 1 -5 -13z"/>
<path d="M102 1850 c0 -19 2 -27 5 -17 2 9 2 25 0 35 -3 9 -5 1 -5 -18z"/>
<path d="M62 1835 c0 -16 2 -22 5 -12 2 9 2 23 0 30 -3 6 -5 -1 -5 -18z"/>
<path d="M82 1835 c0 -16 2 -22 5 -12 2 9 2 23 0 30 -3 6 -5 -1 -5 -18z"/>
<path d="M522 1825 c0 -16 2 -22 5 -12 2 9 2 23 0 30 -3 6 -5 -1 -5 -18z"/>
<path d="M562 1825 c0 -16 2 -22 5 -12 2 9 2 23 0 30 -3 6 -5 -1 -5 -18z"/>
<path d="M22 1810 c0 -19 2 -27 5 -17 2 9 2 25 0 35 -3 9 -5 1 -5 -18z"/>
<path d="M42 1815 c0 -16 2 -22 5 -12 2 9 2 23 0 30 -3 6 -5 -1 -5 -18z"/>
<path d="M2 1800 c0 -19 2 -27 5 -17 2 9 2 25 0 35 -3 9 -5 1 -5 -18z"/>
<path d="M541 1814 c0 -11 3 -14 6 -6 3 7 2 16 -1 19 -3 4 -6 -2 -5 -13z"/>
<path d="M211 1804 c0 -11 3 -14 6 -6 3 7 2 16 -1 19 -3 4 -6 -2 -5 -13z"/>
<path d="M172 1790 c0 -14 2 -19 5 -12 2 6 2 18 0 25 -3 6 -5 1 -5 -13z"/>
<path d="M152 1780 c0 -14 2 -19 5 -12 2 6 2 18 0 25 -3 6 -5 1 -5 -13z"/>
<path d="M92 1765 c0 -16 2 -22 5 -12 2 9 2 23 0 30 -3 6 -5 -1 -5 -18z"/>
<path d="M112 1765 c0 -16 2 -22 5 -12 2 9 2 23 0 30 -3 6 -5 -1 -5 -18z"/>
<path d="M131 1774 c0 -11 3 -14 6 -6 3 7 2 16 -1 19 -3 4 -6 -2 -5 -13z"/>
<path d="M421 1774 c0 -11 3 -14 6 -6 3 7 2 16 -1 19 -3 4 -6 -2 -5 -13z"/>
<path d="M72 1750 c0 -19 2 -27 5 -17 2 9 2 25 0 35 -3 9 -5 1 -5 -18z"/>
<path d="M33 1735 c0 -22 2 -30 4 -17 2 12 2 30 0 40 -3 9 -5 -1 -4 -23z"/>
<path d="M52 1740 c0 -19 2 -27 5 -17 2 9 2 25 0 35 -3 9 -5 1 -5 -18z"/>
<path d="M261 1734 c0 -11 3 -14 6 -6 3 7 2 16 -1 19 -3 4 -6 -2 -5 -13z"/>
<path d="M222 1710 c0 -19 2 -27 5 -17 2 9 2 25 0 35 -3 9 -5 1 -5 -18z"/>
<path d="M2 1175 l1 -150 14 101 c14 89 14 106 0 150 -15 49 -15 48 -15 -101z"/>
<path d="M2433 1288 c5 -15 -25 -82 -163 -373 -26 -55 -57 -129 -68 -165 -12
-36 -23 -72 -26 -80 -2 -8 -5 -3 -5 13 -1 15 -5 27 -11 27 -5 0 -10 7 -10 16
0 11 -6 13 -19 9 -15 -5 -21 1 -28 32 l-10 38 -7 -32 c-4 -18 -12 -33 -16 -33
-5 0 -31 13 -57 28 l-48 29 -18 -37 c-20 -44 -22 -60 -4 -60 20 0 47 -99 47
-174 0 -61 -2 -67 -17 -61 -39 16 -61 16 -99 -1 l-39 -19 63 -3 c53 -2 65 -7
78 -27 9 -13 13 -29 9 -34 -3 -6 0 -9 7 -6 15 6 41 -39 53 -93 5 -27 9 -31 21
-21 8 6 14 20 14 31 0 28 67 159 112 218 21 28 38 60 38 71 0 18 4 20 30 14
19 -4 30 -3 30 4 0 6 -5 11 -12 11 -21 0 74 90 135 127 31 20 57 39 57 42 0 4
-26 36 -59 71 -53 59 -60 64 -76 50 -17 -14 -17 -13 -10 10 4 14 29 72 56 129
l49 105 51 -50 c115 -113 149 -201 155 -402 l5 -142 63 -153 c35 -83 66 -167
69 -185 6 -31 5 -34 -38 -52 -24 -10 -51 -30 -61 -44 -9 -14 -22 -26 -29 -26
-7 0 -20 -20 -28 -45 l-16 -45 100 0 99 0 -2 483 c-2 265 -7 491 -11 502 -7
16 -7 17 2 5 9 -12 11 -10 11 13 0 16 -10 41 -21 55 -19 23 -21 24 -17 6 4
-17 0 -20 -26 -22 -30 -2 -32 1 -54 62 -13 35 -31 71 -42 81 -10 9 -16 23 -13
31 3 8 -1 15 -8 16 -8 0 -18 2 -24 2 -5 1 -16 5 -23 10 -7 4 -12 4 -11 -1 1
-4 1 -17 0 -28 -2 -17 -8 -13 -39 22 -37 42 -98 77 -89 51z m177 -82 c0 -2 -7
-9 -15 -16 -12 -10 -15 -10 -15 4 0 9 7 16 15 16 8 0 15 -2 15 -4z"/>
<path d="M2111 853 c-1 -6 -4 -20 -7 -30 -5 -17 -5 -17 6 0 6 10 9 23 6 30 -3
9 -5 9 -5 0z"/>
<path d="M2406 708 c-45 -23 -71 -46 -71 -62 0 -6 -5 -11 -12 -11 -21 0 -24
-13 -14 -51 l11 -39 83 0 c61 0 90 -4 109 -17 25 -16 26 -16 37 9 6 14 10 26
9 27 -2 0 -13 7 -25 13 -19 11 -21 10 -17 -2 10 -24 -5 -36 -28 -24 -11 6 -42
11 -69 11 -43 -1 -49 2 -49 20 0 12 5 18 13 15 6 -2 21 0 32 4 14 6 3 8 -33 6
-29 -2 -54 -1 -57 2 -2 4 6 16 18 28 29 27 76 27 87 -1 7 -17 9 -18 9 -3 1 19
21 24 21 5 0 -10 2 -10 9 0 13 22 91 -14 86 -39 -2 -11 0 -17 6 -14 5 4 7 11
4 16 -4 5 -1 9 4 9 6 0 11 4 11 9 0 15 -73 39 -139 47 l-61 7 38 19 c20 11 41
24 47 29 17 16 -19 9 -59 -13z"/>
<path d="M2605 680 c10 -11 20 -20 23 -20 3 0 -3 9 -13 20 -10 11 -20 20 -23
20 -3 0 3 -9 13 -20z"/>
<path d="M27 557 c-30 -122 -36 -227 -14 -227 10 0 18 44 30 167 9 92 15 168
14 170 -2 1 -15 -48 -30 -110z"/>
<path d="M2475 611 c-3 -5 -1 -12 5 -16 5 -3 10 1 10 9 0 18 -6 21 -15 7z"/>
<path d="M1990 350 c-13 -8 -12 -10 3 -10 9 0 17 5 17 10 0 12 -1 12 -20 0z"/>
<path d="M1778 343 c6 -2 18 -2 25 0 6 3 1 5 -13 5 -14 0 -19 -2 -12 -5z"/>
<path d="M2005 263 c-4 -10 -9 -40 -11 -67 -3 -37 -1 -47 8 -38 9 9 20 122 12
122 -1 0 -5 -8 -9 -17z"/>
<path d="M1710 167 c0 -7 7 -22 15 -33 8 -12 11 -24 7 -28 -3 -4 2 -4 12 0 12
5 22 2 28 -9 5 -10 13 -17 18 -17 5 0 34 -9 64 -20 44 -17 54 -25 51 -40 -7
-36 14 -21 24 17 6 20 9 38 8 39 -1 1 -42 14 -91 28 -52 16 -98 37 -112 51
-13 13 -24 19 -24 12z"/>
<path d="M1976 80 c-22 -56 -19 -65 5 -11 11 24 18 46 15 48 -2 2 -11 -14 -20
-37z"/>
<path d="M1760 35 c0 -5 5 -17 10 -25 5 -8 10 -11 10 -5 0 6 -5 17 -10 25 -5
8 -10 11 -10 5z"/>
</g>
</svg>
