<svg id="Layer_1" data-name="Layer 1" xmlns="http://www.w3.org/2000/svg" viewBox="0 0 48 48"><defs><style>.cls-3{fill:red}</style></defs><rect x="1" y="1" width="46" height="46" rx="4" ry="4" fill="#fff"/><path d="M43 2a3 3 0 0 1 3 3v38a3 3 0 0 1-3 3H5a3 3 0 0 1-3-3V5a3 3 0 0 1 3-3h38m0-2H5a5 5 0 0 0-5 5v38a5 5 0 0 0 5 5h38a5 5 0 0 0 5-5V5a5 5 0 0 0-5-5z" fill="#f6a623"/><path class="cls-3" d="M5 5h38v38H5z"/><path class="cls-3" d="M42 6v36H6V6h36m2-2H4v40h40V4z"/><text transform="translate(12 36.61)" font-size="36" font-family="Roboto-Light,Roboto">C</text></svg>